<mxfile host="app.diagrams.net" modified="2024-08-23T04:38:49.053Z" agent="Mozilla/5.0 (Windows NT 10.0; Win64; x64; rv:109.0) Gecko/20100101 Firefox/115.0" version="24.7.1" etag="HIkZzIL91n6c1CZqRN1Q" type="github">
  <diagram name="Page-1" id="3GjltzRhkZcBscacgek0">
    <mxGraphModel>
      <root>
        <mxCell id="0" />
        <mxCell id="1" parent="0" />
      </root>
    </mxGraphModel>
  </diagram>
</mxfile>
